<svg version="1.2" xmlns="http://www.w3.org/2000/svg" viewBox="0 0 32 32" width="32" height="32"><style>.a{fill:#fb8500}</style><path class="a" d="m9.4 23.4c0 0.3 0.3 0.5 0.5 0.5h14.4c0.3 0 0.5-0.2 0.5-0.5 0-0.2-0.2-0.4-0.5-0.4h-14.4c-0.3 0-0.5 0.2-0.5 0.4z"/><path class="a" d="m19.5 21.6q0.1 0 0.1 0c0.1 0 0.3-0.1 0.4-0.2l0.9-1.9 0.9 1.9c0.1 0.1 0.2 0.2 0.4 0.2q0 0 0 0c0.2 0 0.4-0.1 0.5-0.3l1-3c0.1-0.2 0-0.5-0.3-0.6-0.2-0.1-0.5 0-0.6 0.3l-0.6 1.9-0.9-1.7c-0.1-0.3-0.4-0.4-0.6-0.2q-0.2 0-0.2 0.2 0 0 0 0l-0.9 1.7-0.7-1.9c-0.1-0.3-0.3-0.4-0.6-0.3-0.2 0.1-0.3 0.3-0.3 0.6l1.1 3c0.1 0.2 0.2 0.3 0.4 0.3z"/><path class="a" d="m11.1 17.7c-0.3 0-0.5 0.3-0.5 0.5v3c0 0.2 0.2 0.4 0.5 0.4h1.8c0.2 0 0.4-0.2 0.4-0.4 0-0.3-0.2-0.5-0.4-0.5h-1.3v-2.5c0-0.3-0.3-0.5-0.5-0.5z"/><path fill-rule="evenodd" class="a" d="m14.2 21.6c-0.2-0.1-0.3-0.4-0.2-0.7l1.5-2.9c0.1-0.2 0.4-0.3 0.6-0.2q0.2 0.1 0.2 0.2 0 0 0 0 0 0 0 0 0 0 0 0l1.5 2.9c0.2 0.3 0.1 0.6-0.2 0.7q-0.1 0-0.2 0c-0.2 0-0.3-0.1-0.4-0.2l-0.2-0.4h-1.8l-0.1 0.4c-0.1 0.1-0.3 0.2-0.5 0.2q-0.1 0-0.2 0zm1.3-1.5h0.9l-0.5-0.9z"/><path fill-rule="evenodd" class="a" d="m19.3 8.5l1.6-1.9q-1.1-0.4-2.1-0.6c-0.3 0.4-0.7 0.8-1.2 0.9v6.6h0.8c0.8 0 1.5 0.7 1.5 1.5v0.6h4.4c0.3 0 0.5 0.2 0.5 0.4 0 0.3-0.2 0.5-0.5 0.5h-14.3c-0.3 0-0.5-0.2-0.5-0.5 0-0.2 0.2-0.4 0.5-0.4h4.4v-0.6c0-0.8 0.7-1.5 1.5-1.5h0.7v-6.6c-0.5-0.1-0.9-0.5-1.2-0.9q-1.1 0.2-2.1 0.6l1.6 1.9q0 0 0.1 0c0.1 0 0.3 0 0.5 0.1 0.1 0.1 0.1 0.3 0.1 0.5q0 0 0 0c0 1.7-1.4 3-3.2 3-1.6 0-3-1.3-3.1-3-0.1-0.2 0-0.3 0.1-0.4 0.2-0.2 0.5-0.2 0.6-0.2q0 0 0.1 0l2-2.2q0.1-0.2 0.2-0.2 1.4-0.7 2.9-1 0 0 0-0.1c0-1 0.8-1.9 1.9-1.9 1.1 0 1.9 0.9 1.9 1.9q0 0.1 0 0.1 1.5 0.3 2.9 1 0.1 0 0.2 0.1l2 2.3q0.1 0 0.1 0c0.1 0 0.4 0 0.6 0.2 0.1 0.1 0.2 0.2 0.1 0.5-0.1 1.6-1.5 2.9-3.1 2.9-1.8 0-3.2-1.3-3.2-3q0 0 0 0c0-0.2 0-0.4 0.1-0.5 0.2-0.1 0.4-0.1 0.5-0.1q0.1 0 0.1 0zm-4.6 0.9h-4.5c0.3 1 1.2 1.8 2.2 1.8 1.1 0 2-0.8 2.3-1.8zm-2.2-2.2l-1.1 1.3h2.3zm3.4 7.2c-0.3 0-0.6 0.3-0.6 0.6v0.6h3.6v-0.6c0-0.3-0.2-0.6-0.6-0.6zm2.2-9.4c0-0.5-0.4-1-1-1-0.5 0-1 0.5-1 1q0 0.2 0.1 0.3c0.1 0.4 0.5 0.7 0.9 0.7 0.6 0 1-0.5 1-1zm2.5 3.5h2.3l-1.2-1.3zm-1 0.9c0.2 1 1.1 1.8 2.2 1.8 1.1 0 2-0.8 2.2-1.8z"/><path fill-rule="evenodd" class="a" d="m27.4 10.3v-8.8c0-0.1 0-0.4-0.1-0.5q-0.1-0.1-0.4-0.1h-19.9v25.7h7.9c0.3 0 0.5 0.2 0.5 0.4 0 0.3-0.2 0.5-0.5 0.5h-8.5c-0.9 0-1.5 0.6-1.7 1.3h22.7v-1.3h-10.3c-0.3 0-0.5-0.2-0.5-0.5 0-0.2 0.2-0.4 0.5-0.4h10.3v-14.1c0-0.3 0.2-0.5 0.5-0.5 0.3 0 0.5 0.2 0.5 0.5v18.4c0 0.6-0.5 1.1-1.2 1.1h-20.8c-1.5 0-2.7-1.2-2.7-2.7l-0.1-26.6q0-0.1 0-0.1c0 0 0-0.7 0.5-1.4 0.3-0.6 1.1-1.2 2.5-1.2h20.3q0.7 0 1.1 0.4 0.4 0.4 0.4 1.1v8.8c0 0.2-0.2 0.4-0.5 0.4-0.2 0-0.5-0.2-0.5-0.4zm0 19.5h-22.7c0.2 0.7 0.8 1.3 1.7 1.3h20.8c0.1 0 0.2-0.1 0.2-0.2zm-21.3-3.2v-25.6c-1.3 0.2-1.5 1.2-1.5 1.5v24.7c0.4-0.3 0.9-0.5 1.5-0.6z"/></svg>