<?xml version="1.0" standalone="no"?>
<!DOCTYPE svg PUBLIC "-//W3C//DTD SVG 20010904//EN"
 "http://www.w3.org/TR/2001/REC-SVG-20010904/DTD/svg10.dtd">
<svg version="1.0" xmlns="http://www.w3.org/2000/svg"
 width="729.000000pt" height="729.000000pt" viewBox="0 0 729.000000 729.000000"
 preserveAspectRatio="xMidYMid meet">

<g transform="translate(0.000000,729.000000) scale(0.100000,-0.100000)"
fill="#000000" stroke="none">
<path d="M3363 7283 c15 -2 37 -2 50 0 12 2 0 4 -28 4 -27 0 -38 -2 -22 -4z"/>
<path d="M3893 7283 c15 -2 37 -2 50 0 12 2 0 4 -28 4 -27 0 -38 -2 -22 -4z"/>
<path d="M3253 7273 c9 -2 25 -2 35 0 9 3 1 5 -18 5 -19 0 -27 -2 -17 -5z"/>
<path d="M4013 7273 c9 -2 25 -2 35 0 9 3 1 5 -18 5 -19 0 -27 -2 -17 -5z"/>
<path d="M3173 7263 c9 -2 23 -2 30 0 6 3 -1 5 -18 5 -16 0 -22 -2 -12 -5z"/>
<path d="M4103 7263 c9 -2 23 -2 30 0 6 3 -1 5 -18 5 -16 0 -22 -2 -12 -5z"/>
<path d="M3098 7253 c6 -2 18 -2 25 0 6 3 1 5 -13 5 -14 0 -19 -2 -12 -5z"/>
<path d="M4178 7253 c6 -2 18 -2 25 0 6 3 1 5 -13 5 -14 0 -19 -2 -12 -5z"/>
<path d="M3038 7243 c6 -2 18 -2 25 0 6 3 1 5 -13 5 -14 0 -19 -2 -12 -5z"/>
<path d="M4238 7243 c6 -2 18 -2 25 0 6 3 1 5 -13 5 -14 0 -19 -2 -12 -5z"/>
<path d="M2978 7233 c6 -2 18 -2 25 0 6 3 1 5 -13 5 -14 0 -19 -2 -12 -5z"/>
<path d="M4298 7233 c6 -2 18 -2 25 0 6 3 1 5 -13 5 -14 0 -19 -2 -12 -5z"/>
<path d="M2928 7223 c7 -3 16 -2 19 1 4 3 -2 6 -13 5 -11 0 -14 -3 -6 -6z"/>
<path d="M4358 7223 c7 -3 16 -2 19 1 4 3 -2 6 -13 5 -11 0 -14 -3 -6 -6z"/>
<path d="M2878 7213 c7 -3 16 -2 19 1 4 3 -2 6 -13 5 -11 0 -14 -3 -6 -6z"/>
<path d="M4408 7213 c7 -3 16 -2 19 1 4 3 -2 6 -13 5 -11 0 -14 -3 -6 -6z"/>
<path d="M2838 7203 c7 -3 16 -2 19 1 4 3 -2 6 -13 5 -11 0 -14 -3 -6 -6z"/>
<path d="M4448 7203 c7 -3 16 -2 19 1 4 3 -2 6 -13 5 -11 0 -14 -3 -6 -6z"/>
<path d="M2788 7193 c7 -3 16 -2 19 1 4 3 -2 6 -13 5 -11 0 -14 -3 -6 -6z"/>
<path d="M4498 7193 c7 -3 16 -2 19 1 4 3 -2 6 -13 5 -11 0 -14 -3 -6 -6z"/>
<path d="M2748 7183 c7 -3 16 -2 19 1 4 3 -2 6 -13 5 -11 0 -14 -3 -6 -6z"/>
<path d="M4538 7183 c7 -3 16 -2 19 1 4 3 -2 6 -13 5 -11 0 -14 -3 -6 -6z"/>
<path d="M2638 7153 c7 -3 16 -2 19 1 4 3 -2 6 -13 5 -11 0 -14 -3 -6 -6z"/>
<path d="M4648 7153 c7 -3 16 -2 19 1 4 3 -2 6 -13 5 -11 0 -14 -3 -6 -6z"/>
<path d="M4815 7100 c27 -12 43 -12 25 0 -8 5 -22 9 -30 9 -10 0 -8 -3 5 -9z"/>
<path d="M4930 7060 c8 -5 20 -10 25 -10 6 0 3 5 -5 10 -8 5 -19 10 -25 10 -5
0 -3 -5 5 -10z"/>
<path d="M2200 7000 c-8 -5 -10 -10 -5 -10 6 0 17 5 25 10 8 5 11 10 5 10 -5
0 -17 -5 -25 -10z"/>
<path d="M5080 7000 c8 -5 20 -10 25 -10 6 0 3 5 -5 10 -8 5 -19 10 -25 10 -5
0 -3 -5 5 -10z"/>
<path d="M2090 6950 c-19 -11 -30 -19 -25 -19 6 0 26 8 45 19 19 11 31 19 25
19 -5 0 -26 -8 -45 -19z"/>
<path d="M5190 6950 c19 -11 40 -19 45 -19 6 0 -6 8 -25 19 -19 11 -39 19 -45
19 -5 0 6 -8 25 -19z"/>
<path d="M1938 6874 c-27 -13 -48 -27 -48 -29 0 -3 23 6 50 20 28 14 50 28 50
30 0 7 1 7 -52 -21z"/>
<path d="M5310 6895 c0 -2 23 -16 50 -30 28 -14 50 -23 50 -20 0 2 -22 16 -50
30 -27 14 -50 23 -50 20z"/>
<path d="M3510 6839 c-74 -3 -141 -7 -148 -8 -9 -1 -12 -12 -10 -33 3 -33 3
-33 58 -33 l55 0 6 -115 c4 -63 7 -134 8 -157 l1 -43 44 0 45 0 -6 160 -6 160
34 0 c64 0 75 8 71 46 -2 19 -7 33 -11 32 -3 -1 -67 -5 -141 -9z"/>
<path d="M1834 6814 c-18 -14 -18 -15 4 -4 12 6 22 13 22 15 0 8 -5 6 -26 -11z"/>
<path d="M4160 6824 c0 -3 -18 -113 -40 -244 -22 -131 -40 -243 -40 -248 0 -5
14 -12 30 -14 17 -3 30 -2 30 1 0 3 18 115 41 249 23 134 40 244 38 246 -9 7
-59 16 -59 10z"/>
<path d="M5440 6826 c0 -3 9 -10 20 -16 11 -6 20 -8 20 -6 0 3 -9 10 -20 16
-11 6 -20 8 -20 6z"/>
<path d="M3203 6813 c-18 -2 -33 -7 -33 -11 0 -4 9 -56 20 -116 11 -60 20
-122 20 -137 0 -64 -76 -99 -124 -57 -23 20 -29 39 -49 153 l-23 130 -34 -3
c-19 -2 -39 -7 -44 -12 -11 -11 32 -249 52 -284 70 -121 282 -87 308 49 8 44
-35 296 -50 293 -6 0 -26 -3 -43 -5z"/>
<path d="M1784 6784 c-18 -14 -18 -15 4 -4 12 6 22 13 22 15 0 8 -5 6 -26 -11z"/>
<path d="M5490 6796 c0 -3 9 -10 20 -16 11 -6 20 -8 20 -6 0 3 -9 10 -20 16
-11 6 -20 8 -20 6z"/>
<path d="M1734 6754 c-18 -14 -18 -15 4 -4 12 6 22 13 22 15 0 8 -5 6 -26 -11z"/>
<path d="M5540 6766 c0 -3 9 -10 20 -16 11 -6 20 -8 20 -6 0 3 -9 10 -20 16
-11 6 -20 8 -20 6z"/>
<path d="M1637 6695 c-37 -25 -67 -48 -67 -50 0 -3 32 16 70 41 61 41 77 54
67 54 -1 0 -33 -20 -70 -45z"/>
<path d="M5590 6737 c0 -2 32 -25 70 -51 39 -25 70 -44 70 -41 0 2 -26 22 -57
43 -71 47 -83 54 -83 49z"/>
<path d="M2635 6673 c-44 -14 -81 -26 -83 -28 -3 -2 108 -357 114 -364 4 -4
84 18 84 23 0 2 -9 29 -20 61 -25 72 -25 72 0 80 16 5 35 -7 81 -50 63 -58 63
-58 128 -33 l24 9 -24 25 c-13 14 -45 42 -71 61 l-46 36 19 31 c48 78 -8 177
-98 176 -15 -1 -64 -12 -108 -27z m115 -53 c22 -12 34 -54 21 -79 -13 -23 -69
-47 -80 -35 -5 5 -15 30 -24 56 l-15 47 26 10 c36 13 50 13 72 1z"/>
<path d="M1509 6603 c-13 -16 -12 -17 4 -4 9 7 17 15 17 17 0 8 -8 3 -21 -13z"/>
<path d="M4745 6611 c-35 -15 -57 -49 -63 -96 -5 -45 -3 -47 52 -100 57 -56
68 -83 41 -105 -21 -18 -63 -4 -96 31 -30 32 -45 35 -71 15 -25 -18 -23 -28
15 -64 37 -36 94 -62 134 -62 60 0 123 66 123 130 0 11 -27 50 -60 85 -52 56
-59 68 -50 85 16 29 54 25 94 -11 34 -29 36 -30 60 -13 15 9 26 19 26 23 0 14
-65 70 -93 80 -33 13 -83 13 -112 2z"/>
<path d="M5770 6616 c0 -2 8 -10 18 -17 15 -13 16 -12 3 4 -13 16 -21 21 -21
13z"/>
<path d="M2395 6589 c-22 -10 -72 -34 -111 -52 l-71 -32 79 -175 c44 -96 81
-176 82 -178 4 -3 208 88 219 98 4 4 2 19 -4 34 -14 30 -23 29 -101 -10 -26
-13 -51 -24 -56 -24 -4 0 -14 17 -22 38 -8 20 -16 40 -18 43 -1 3 21 16 50 29
29 12 54 23 56 25 6 5 -21 55 -30 55 -5 0 -21 -6 -36 -14 -62 -31 -70 -30 -92
13 l-20 40 75 35 76 35 -16 31 c-8 16 -17 30 -18 29 -1 0 -20 -9 -42 -20z"/>
<path d="M1450 6559 l-35 -30 38 26 c33 24 43 35 34 35 -1 0 -18 -14 -37 -31z"/>
<path d="M5810 6587 c0 -3 17 -17 37 -33 20 -15 33 -23 29 -16 -8 13 -66 56
-66 49z"/>
<path d="M1360 6489 l-45 -41 48 37 c41 33 53 45 45 45 -2 0 -23 -18 -48 -41z"/>
<path d="M5890 6527 c0 -3 21 -22 47 -43 26 -21 44 -33 40 -27 -9 14 -87 77
-87 70z"/>
<path d="M4975 6349 c-49 -88 -91 -164 -93 -169 -3 -8 66 -55 72 -49 2 2 21
34 41 72 20 37 39 67 42 67 3 0 36 -17 74 -37 l68 -36 -41 -74 c-22 -41 -39
-75 -37 -77 27 -18 60 -36 67 -36 6 0 51 75 102 166 89 160 92 167 74 181 -54
41 -52 42 -103 -50 l-33 -58 -66 37 c-37 20 -69 38 -71 40 -2 1 13 33 33 69
20 36 36 69 36 73 0 7 -62 42 -73 42 -1 0 -42 -72 -92 -161z"/>
<path d="M2018 6394 l-107 -65 101 -167 c55 -92 101 -168 102 -169 2 -2 205
121 207 127 1 3 -4 17 -12 32 l-14 26 -65 -39 c-36 -21 -68 -39 -72 -39 -7 0
-48 67 -48 78 0 4 23 20 50 35 l50 28 -15 29 -15 30 -50 -31 c-27 -17 -54 -28
-60 -24 -6 3 -17 20 -26 38 -19 35 -17 38 70 89 l47 28 -16 30 c-9 16 -17 30
-18 30 -1 -1 -50 -30 -109 -66z"/>
<path d="M1274 6418 l-29 -33 33 29 c17 17 32 31 32 33 0 8 -8 1 -36 -29z"/>
<path d="M5990 6447 c0 -2 15 -16 33 -33 l32 -29 -29 33 c-28 30 -36 37 -36
29z"/>
<path d="M1180 6333 l-55 -58 58 55 c53 50 62 60 54 60 -1 0 -27 -26 -57 -57z"/>
<path d="M6110 6335 c30 -30 57 -55 59 -55 3 0 -19 25 -49 55 -30 30 -57 55
-59 55 -3 0 19 -25 49 -55z"/>
<path d="M1065 6228 l-50 -53 53 50 c48 46 57 55 49 55 -1 0 -25 -24 -52 -52z"/>
<path d="M6225 6230 c27 -27 51 -50 54 -50 3 0 -17 23 -44 50 -27 28 -51 50
-54 50 -3 0 17 -22 44 -50z"/>
<path d="M1753 6230 c-18 -17 -30 -36 -28 -43 7 -21 55 -246 55 -257 0 -6 -11
-5 -28 4 -15 8 -73 35 -129 59 l-102 45 -36 -28 -35 -28 121 -148 c67 -82 124
-150 128 -151 3 -1 18 8 34 20 l27 23 -80 97 c-44 53 -76 97 -72 97 5 0 50
-18 101 -40 102 -44 122 -48 142 -24 11 14 10 34 -10 126 -12 60 -21 111 -19
113 2 2 37 -39 78 -90 41 -52 77 -94 80 -94 3 -1 18 9 34 22 l28 23 -122 149
c-67 83 -125 151 -129 152 -3 2 -20 -11 -38 -27z"/>
<path d="M5462 6210 c-57 -13 -108 -55 -136 -111 -30 -60 -33 -104 -10 -157
64 -154 263 -179 357 -45 35 49 46 125 27 175 -37 93 -149 158 -238 138z m118
-99 c35 -25 53 -66 46 -105 -8 -44 -59 -102 -101 -116 -30 -10 -41 -9 -73 8
-20 10 -45 33 -56 51 -16 28 -17 38 -7 70 30 103 118 145 191 92z"/>
<path d="M959 6113 c-64 -68 -128 -142 -88 -103 47 46 152 160 148 160 -3 0
-29 -26 -60 -57z"/>
<path d="M6339 6105 c94 -102 122 -129 64 -60 -28 33 -68 76 -89 95 -21 19
-10 4 25 -35z"/>
<path d="M819 5953 l-24 -28 28 24 c25 23 32 31 24 31 -2 0 -14 -12 -28 -27z"/>
<path d="M6526 5883 c81 -104 117 -145 69 -78 -41 58 -135 175 -140 175 -3 0
30 -44 71 -97z"/>
<path d="M5727 5816 l-139 -134 64 -67 c100 -108 172 -128 233 -65 24 25 27
34 22 67 l-7 38 40 -3 c32 -3 43 1 65 23 30 33 34 88 9 125 -20 29 -136 150
-144 149 -3 0 -67 -60 -143 -133z m197 -9 c30 -40 32 -54 9 -79 -27 -30 -62
-18 -103 35 -12 16 -9 21 21 47 19 16 37 29 41 30 4 0 18 -15 32 -33z m-115
-112 c37 -42 39 -68 9 -89 -32 -23 -43 -20 -83 20 l-37 36 33 34 c18 19 36 34
40 34 4 0 21 -16 38 -35z"/>
<path d="M744 5858 c-26 -35 -52 -69 -57 -75 -5 -7 -7 -13 -4 -13 2 0 30 34
61 75 31 41 54 75 52 75 -3 0 -26 -28 -52 -62z"/>
<path d="M622 5688 c-55 -83 -70 -108 -55 -93 16 16 114 165 109 165 -3 0 -27
-33 -54 -72z"/>
<path d="M6671 5683 c49 -74 83 -118 64 -83 -19 33 -106 160 -111 160 -2 0 19
-35 47 -77z"/>
<path d="M1192 5696 c-12 -18 -22 -39 -22 -47 0 -8 18 -48 40 -89 22 -41 40
-78 40 -81 0 -4 -43 3 -96 14 l-97 21 -28 -34 c-16 -19 -29 -37 -29 -40 0 -3
61 -13 135 -22 136 -17 136 -17 197 -62 l61 -46 24 32 c13 18 22 35 21 39 -2
3 -28 26 -58 51 -51 41 -59 53 -105 165 -28 67 -52 124 -55 127 -3 2 -15 -10
-28 -28z"/>
<path d="M5998 5538 c-87 -62 -157 -117 -157 -123 0 -5 10 -23 23 -39 l24 -29
67 48 c75 54 66 56 128 -31 l37 -51 -69 -49 -68 -49 25 -38 c16 -24 29 -34 36
-29 6 5 76 55 156 112 80 57 147 105 149 106 4 4 -39 74 -46 74 -3 0 -35 -21
-70 -46 -36 -25 -68 -42 -72 -38 -25 29 -81 113 -81 121 0 5 25 27 55 48 31
21 58 42 61 47 4 6 -32 78 -39 78 -1 0 -73 -51 -159 -112z"/>
<path d="M1482 5558 c-32 -32 0 -83 46 -72 17 5 21 1 24 -22 2 -18 10 -30 21
-32 22 -4 22 24 1 78 -22 54 -64 76 -92 48z"/>
<path d="M520 5530 c-6 -11 -8 -20 -6 -20 3 0 10 9 16 20 6 11 8 20 6 20 -3 0
-10 -9 -16 -20z"/>
<path d="M6770 5530 c6 -11 13 -20 16 -20 2 0 0 9 -6 20 -6 11 -13 20 -16 20
-2 0 0 -9 6 -20z"/>
<path d="M485 5470 c-9 -16 -13 -30 -11 -30 3 0 12 14 21 30 9 17 13 30 11 30
-3 0 -12 -13 -21 -30z"/>
<path d="M6805 5470 c9 -16 18 -30 21 -30 2 0 -2 14 -11 30 -9 17 -18 30 -21
30 -2 0 2 -13 11 -30z"/>
<path d="M435 5380 c-9 -16 -13 -30 -11 -30 3 0 12 14 21 30 9 17 13 30 11 30
-3 0 -12 -13 -21 -30z"/>
<path d="M6855 5380 c9 -16 18 -30 21 -30 2 0 -2 14 -11 30 -9 17 -18 30 -21
30 -2 0 2 -13 11 -30z"/>
<path d="M955 5340 c-57 -36 -105 -125 -105 -192 0 -100 93 -188 200 -188 107
0 194 83 214 205 6 36 4 41 -21 56 -15 8 -49 27 -75 42 l-46 28 -31 -54 c-37
-65 -38 -71 -7 -85 21 -9 26 -8 39 11 13 19 17 20 42 9 23 -11 26 -17 21 -40
-10 -40 -69 -92 -106 -92 -45 0 -92 23 -123 59 -45 54 -31 123 35 175 29 22
31 28 23 52 -13 35 -23 38 -60 14z"/>
<path d="M6238 5172 l-167 -96 14 -25 c8 -14 18 -32 23 -39 7 -10 47 9 168 78
87 50 163 95 167 100 8 7 -15 64 -30 73 -5 3 -83 -38 -175 -91z"/>
<path d="M332 5175 c-17 -37 -14 -45 4 -12 9 16 14 31 11 33 -2 2 -9 -7 -15
-21z"/>
<path d="M6951 5195 c0 -5 6 -21 14 -35 8 -14 14 -20 14 -15 0 6 -6 21 -14 35
-8 14 -14 21 -14 15z"/>
<path d="M6465 5098 c-11 -6 -21 -12 -23 -14 -2 -1 6 -20 17 -43 12 -22 21
-44 21 -49 0 -5 -21 -19 -47 -30 -27 -11 -92 -41 -145 -66 l-98 -45 17 -38
c10 -21 18 -39 18 -40 1 -2 65 26 142 62 78 36 145 65 151 65 5 0 17 -20 26
-45 19 -47 27 -52 63 -32 l23 12 -63 134 c-34 74 -67 136 -72 137 -6 2 -19 -2
-30 -8z"/>
<path d="M266 5025 c-9 -26 -7 -32 5 -12 6 10 9 21 6 23 -2 3 -7 -2 -11 -11z"/>
<path d="M7020 5035 c0 -5 5 -17 10 -25 5 -8 10 -10 10 -5 0 6 -5 17 -10 25
-5 8 -10 11 -10 5z"/>
<path d="M765 4923 c-75 -39 -114 -105 -115 -191 0 -103 64 -177 171 -197 113
-21 228 84 229 207 0 58 -13 94 -48 132 -57 61 -170 85 -237 49z m153 -95 c33
-20 62 -64 62 -93 0 -32 -33 -86 -61 -100 -88 -46 -213 34 -195 127 7 37 48
83 81 90 31 7 77 -3 113 -24z"/>
<path d="M161 4724 c0 -11 3 -14 6 -6 3 7 2 16 -1 19 -3 4 -6 -2 -5 -13z"/>
<path d="M7131 4724 c0 -11 3 -14 6 -6 3 7 2 16 -1 19 -3 4 -6 -2 -5 -13z"/>
<path d="M6507 4581 c-98 -31 -178 -60 -178 -64 1 -26 14 -77 20 -77 7 0 364
111 368 114 5 4 -20 86 -26 85 -3 -1 -86 -26 -184 -58z"/>
<path d="M121 4584 c0 -11 3 -14 6 -6 3 7 2 16 -1 19 -3 4 -6 -2 -5 -13z"/>
<path d="M7171 4584 c0 -11 3 -14 6 -6 3 7 2 16 -1 19 -3 4 -6 -2 -5 -13z"/>
<path d="M111 4544 c0 -11 3 -14 6 -6 3 7 2 16 -1 19 -3 4 -6 -2 -5 -13z"/>
<path d="M7181 4544 c0 -11 3 -14 6 -6 3 7 2 16 -1 19 -3 4 -6 -2 -5 -13z"/>
<path d="M101 4504 c0 -11 3 -14 6 -6 3 7 2 16 -1 19 -3 4 -6 -2 -5 -13z"/>
<path d="M7191 4504 c0 -11 3 -14 6 -6 3 7 2 16 -1 19 -3 4 -6 -2 -5 -13z"/>
<path d="M91 4464 c0 -11 3 -14 6 -6 3 7 2 16 -1 19 -3 4 -6 -2 -5 -13z"/>
<path d="M7201 4464 c0 -11 3 -14 6 -6 3 7 2 16 -1 19 -3 4 -6 -2 -5 -13z"/>
<path d="M887 4463 c-2 -4 -10 -33 -17 -63 -7 -30 -14 -58 -16 -61 -2 -4 -72
11 -156 32 -84 21 -154 39 -155 39 -4 0 -24 -82 -21 -84 8 -6 371 -96 374 -94
7 8 58 217 54 221 -10 11 -58 18 -63 10z"/>
<path d="M6565 4401 c-173 -35 -180 -38 -183 -61 -5 -53 6 -55 128 -31 62 12
113 21 115 19 2 -2 -42 -56 -97 -121 -90 -106 -99 -120 -93 -147 4 -17 12 -30
18 -30 7 0 94 16 193 36 l181 36 -7 35 c-5 19 -10 36 -12 38 -1 2 -55 -7 -118
-20 -63 -13 -116 -22 -117 -21 -2 1 42 55 97 120 55 65 100 123 100 129 0 22
-12 57 -19 56 -3 -1 -87 -18 -186 -38z"/>
<path d="M81 4414 c0 -11 3 -14 6 -6 3 7 2 16 -1 19 -3 4 -6 -2 -5 -13z"/>
<path d="M7211 4414 c0 -11 3 -14 6 -6 3 7 2 16 -1 19 -3 4 -6 -2 -5 -13z"/>
<path d="M71 4364 c0 -11 3 -14 6 -6 3 7 2 16 -1 19 -3 4 -6 -2 -5 -13z"/>
<path d="M7221 4364 c0 -11 3 -14 6 -6 3 7 2 16 -1 19 -3 4 -6 -2 -5 -13z"/>
<path d="M61 4314 c0 -11 3 -14 6 -6 3 7 2 16 -1 19 -3 4 -6 -2 -5 -13z"/>
<path d="M7231 4314 c0 -11 3 -14 6 -6 3 7 2 16 -1 19 -3 4 -6 -2 -5 -13z"/>
<path d="M52 4260 c0 -14 2 -19 5 -12 2 6 2 18 0 25 -3 6 -5 1 -5 -13z"/>
<path d="M7242 4260 c0 -14 2 -19 5 -12 2 6 2 18 0 25 -3 6 -5 1 -5 -13z"/>
<path d="M42 4195 c0 -16 2 -22 5 -12 2 9 2 23 0 30 -3 6 -5 -1 -5 -18z"/>
<path d="M7252 4195 c0 -16 2 -22 5 -12 2 9 2 23 0 30 -3 6 -5 -1 -5 -18z"/>
<path d="M635 4205 c-5 -2 -22 -6 -38 -9 -47 -11 -105 -72 -122 -129 -18 -60
-18 -79 -5 -129 29 -104 162 -167 267 -127 126 47 166 253 67 340 -40 35 -136
66 -169 54z m62 -95 c15 0 39 -14 60 -35 33 -33 35 -39 30 -82 -4 -37 -12 -54
-37 -76 -30 -27 -38 -29 -91 -25 -48 3 -65 10 -89 33 -58 56 -33 162 43 184
18 5 38 7 45 5 8 -2 25 -4 39 -4z"/>
<path d="M32 4125 c0 -16 2 -22 5 -12 2 9 2 23 0 30 -3 6 -5 -1 -5 -18z"/>
<path d="M7262 4125 c0 -16 2 -22 5 -12 2 9 2 23 0 30 -3 6 -5 -1 -5 -18z"/>
<path d="M22 4035 c0 -16 2 -22 5 -12 2 9 2 23 0 30 -3 6 -5 -1 -5 -18z"/>
<path d="M7272 4035 c0 -16 2 -22 5 -12 2 9 2 23 0 30 -3 6 -5 -1 -5 -18z"/>
<path d="M6694 3969 c-41 -12 -50 -24 -77 -105 -18 -56 -26 -70 -45 -72 -50
-7 -68 48 -36 110 16 31 16 33 -6 50 -33 27 -46 22 -64 -22 -45 -112 9 -220
110 -220 59 0 90 29 112 104 20 66 41 88 70 70 18 -12 22 -68 8 -110 -6 -16
-2 -23 19 -32 35 -16 34 -17 51 23 49 119 -32 235 -142 204z"/>
<path d="M13 3920 c0 -25 2 -35 4 -22 2 12 2 32 0 45 -2 12 -4 2 -4 -23z"/>
<path d="M7283 3920 c0 -25 2 -35 4 -22 2 12 2 32 0 45 -2 12 -4 2 -4 -23z"/>
<path d="M4 3655 c0 -88 2 -123 3 -77 2 46 2 118 0 160 -1 42 -3 5 -3 -83z"/>
<path d="M538 3703 l-98 -4 0 -41 0 -41 128 7 127 7 -50 -43 c-188 -162 -190
-164 -193 -196 l-3 -32 98 0 c54 0 142 3 196 7 l97 6 0 38 0 39 -120 -7 c-66
-3 -120 -4 -120 -1 0 2 51 48 114 102 63 53 116 102 119 109 2 6 1 22 -1 34
-5 25 -6 25 -294 16z"/>
<path d="M6785 3605 l-8 -58 -158 7 -159 7 0 -44 0 -44 107 -6 c58 -4 131 -7
161 -7 l54 0 -4 -54 c-4 -54 -4 -54 26 -59 17 -3 33 -3 36 0 4 3 19 295 15
300 -1 2 -15 6 -32 9 l-31 6 -7 -57z"/>
<path d="M13 3390 c0 -25 2 -35 4 -22 2 12 2 32 0 45 -2 12 -4 2 -4 -23z"/>
<path d="M7283 3390 c0 -25 2 -35 4 -22 2 12 2 32 0 45 -2 12 -4 2 -4 -23z"/>
<path d="M6438 3268 c-3 -24 -4 -44 -4 -44 2 -4 381 -52 384 -49 5 5 15 85 11
85 -2 0 -87 11 -189 25 -102 14 -188 25 -191 25 -4 0 -9 -19 -11 -42z"/>
<path d="M22 3275 c0 -16 2 -22 5 -12 2 9 2 23 0 30 -3 6 -5 -1 -5 -18z"/>
<path d="M7272 3275 c0 -16 2 -22 5 -12 2 9 2 23 0 30 -3 6 -5 -1 -5 -18z"/>
<path d="M640 3256 l-165 -32 3 -39 c2 -22 5 -42 8 -44 2 -2 38 2 79 9 41 7
78 11 80 8 8 -8 32 -149 26 -152 -3 -2 -39 -9 -80 -17 l-73 -13 5 -39 c3 -21
8 -41 10 -44 6 -5 343 54 368 65 12 6 14 15 7 48 l-9 41 -67 -13 c-102 -20
-96 -23 -110 56 -7 39 -12 74 -12 79 0 5 34 15 75 22 42 6 78 15 80 19 2 4 2
23 -2 43 -7 46 -2 46 -223 3z"/>
<path d="M32 3185 c0 -16 2 -22 5 -12 2 9 2 23 0 30 -3 6 -5 -1 -5 -18z"/>
<path d="M7262 3185 c0 -16 2 -22 5 -12 2 9 2 23 0 30 -3 6 -5 -1 -5 -18z"/>
<path d="M42 3115 c0 -16 2 -22 5 -12 2 9 2 23 0 30 -3 6 -5 -1 -5 -18z"/>
<path d="M7252 3115 c0 -16 2 -22 5 -12 2 9 2 23 0 30 -3 6 -5 -1 -5 -18z"/>
<path d="M6736 3094 c-3 -9 -6 -22 -6 -29 0 -8 -4 -25 -9 -38 l-9 -24 -153 34
c-83 18 -154 32 -156 29 -3 -2 -7 -22 -10 -43 l-5 -39 148 -32 c81 -18 150
-35 153 -38 3 -2 0 -27 -5 -54 l-11 -50 31 -9 c17 -4 33 -7 34 -5 4 3 71 298
69 300 -1 1 -16 4 -34 7 -23 5 -33 2 -37 -9z"/>
<path d="M52 3050 c0 -14 2 -19 5 -12 2 6 2 18 0 25 -3 6 -5 1 -5 -13z"/>
<path d="M7242 3050 c0 -14 2 -19 5 -12 2 6 2 18 0 25 -3 6 -5 1 -5 -13z"/>
<path d="M61 2994 c0 -11 3 -14 6 -6 3 7 2 16 -1 19 -3 4 -6 -2 -5 -13z"/>
<path d="M7231 2994 c0 -11 3 -14 6 -6 3 7 2 16 -1 19 -3 4 -6 -2 -5 -13z"/>
<path d="M71 2944 c0 -11 3 -14 6 -6 3 7 2 16 -1 19 -3 4 -6 -2 -5 -13z"/>
<path d="M7221 2944 c0 -11 3 -14 6 -6 3 7 2 16 -1 19 -3 4 -6 -2 -5 -13z"/>
<path d="M81 2894 c0 -11 3 -14 6 -6 3 7 2 16 -1 19 -3 4 -6 -2 -5 -13z"/>
<path d="M7211 2894 c0 -11 3 -14 6 -6 3 7 2 16 -1 19 -3 4 -6 -2 -5 -13z"/>
<path d="M858 2865 c-9 -21 -7 -29 21 -60 56 -64 34 -146 -49 -179 -102 -41
-170 3 -170 110 0 39 -3 46 -26 54 -33 13 -40 8 -48 -35 -10 -53 18 -138 58
-178 102 -103 299 -48 337 94 16 61 -2 129 -49 181 -40 44 -58 48 -74 13z"/>
<path d="M91 2844 c0 -11 3 -14 6 -6 3 7 2 16 -1 19 -3 4 -6 -2 -5 -13z"/>
<path d="M7201 2844 c0 -11 3 -14 6 -6 3 7 2 16 -1 19 -3 4 -6 -2 -5 -13z"/>
<path d="M101 2804 c0 -11 3 -14 6 -6 3 7 2 16 -1 19 -3 4 -6 -2 -5 -13z"/>
<path d="M7191 2804 c0 -11 3 -14 6 -6 3 7 2 16 -1 19 -3 4 -6 -2 -5 -13z"/>
<path d="M111 2764 c0 -11 3 -14 6 -6 3 7 2 16 -1 19 -3 4 -6 -2 -5 -13z"/>
<path d="M6341 2744 c-82 -73 -84 -209 -5 -261 21 -13 246 -103 260 -103 9 0
34 74 27 80 -5 4 -55 24 -113 45 -58 21 -115 45 -128 53 -47 30 -36 110 19
132 29 12 68 1 276 -77 11 -4 42 73 32 80 -2 2 -55 22 -117 45 -148 55 -196
56 -251 6z"/>
<path d="M7181 2764 c0 -11 3 -14 6 -6 3 7 2 16 -1 19 -3 4 -6 -2 -5 -13z"/>
<path d="M121 2724 c0 -11 3 -14 6 -6 3 7 2 16 -1 19 -3 4 -6 -2 -5 -13z"/>
<path d="M7171 2724 c0 -11 3 -14 6 -6 3 7 2 16 -1 19 -3 4 -6 -2 -5 -13z"/>
<path d="M161 2584 c0 -11 3 -14 6 -6 3 7 2 16 -1 19 -3 4 -6 -2 -5 -13z"/>
<path d="M7131 2584 c0 -11 3 -14 6 -6 3 7 2 16 -1 19 -3 4 -6 -2 -5 -13z"/>
<path d="M1013 2558 c-29 -14 -29 -17 7 -88 17 -33 30 -64 30 -69 0 -7 -69
-41 -85 -41 -2 0 -14 23 -26 50 -21 50 -38 60 -68 41 -12 -8 -11 -17 7 -59 12
-28 22 -55 22 -60 0 -7 -62 -42 -75 -42 -3 0 -21 32 -40 70 -19 39 -39 70 -43
70 -4 -1 -17 -6 -29 -13 l-22 -12 52 -110 c28 -61 52 -111 53 -113 1 -2 346
157 352 162 4 5 -101 226 -107 225 -3 0 -16 -5 -28 -11z"/>
<path d="M6141 2332 l-19 -38 139 -73 c76 -40 139 -77 139 -82 0 -5 -9 -28
-21 -50 -11 -23 -19 -42 -17 -43 2 -1 15 -9 29 -18 l26 -16 72 138 72 139 -30
15 -29 16 -27 -45 c-14 -25 -29 -45 -33 -45 -4 0 -68 32 -141 70 -74 39 -136
70 -137 70 -2 0 -12 -17 -23 -38z"/>
<path d="M240 2355 c0 -5 5 -17 10 -25 5 -8 10 -10 10 -5 0 6 -5 17 -10 25 -5
8 -10 11 -10 5z"/>
<path d="M260 2305 c0 -5 5 -17 10 -25 5 -8 10 -10 10 -5 0 6 -5 17 -10 25 -5
8 -10 11 -10 5z"/>
<path d="M7026 2295 c-9 -26 -7 -32 5 -12 6 10 9 21 6 23 -2 3 -7 -2 -11 -11z"/>
<path d="M1088 2119 l-128 -79 -26 43 c-15 23 -28 43 -29 45 -2 2 -17 -4 -34
-13 l-32 -16 23 -37 c13 -21 50 -81 82 -134 l59 -96 26 16 c14 9 28 17 30 19
2 1 -9 23 -24 49 -15 25 -23 49 -19 53 5 5 66 43 136 85 l127 77 -21 35 c-11
18 -25 34 -31 33 -7 0 -69 -36 -139 -80z"/>
<path d="M321 2165 c0 -5 6 -21 14 -35 8 -14 14 -20 14 -15 0 6 -6 21 -14 35
-8 14 -14 21 -14 15z"/>
<path d="M6962 2145 c-17 -37 -14 -45 4 -12 9 16 14 31 11 33 -2 2 -9 -7 -15
-21z"/>
<path d="M5968 2050 l-68 -99 29 -20 29 -21 42 65 c23 36 45 65 47 65 12 0 73
-42 73 -51 0 -4 -14 -29 -32 -54 -31 -44 -31 -45 -12 -60 10 -8 24 -14 29 -15
8 0 33 30 66 83 8 11 79 -29 79 -44 0 -6 -18 -37 -41 -70 l-40 -60 23 -19 c13
-11 25 -19 28 -19 3 0 36 45 74 100 57 85 66 103 55 114 -24 22 -297 205 -305
205 -5 -1 -39 -45 -76 -100z"/>
<path d="M435 1930 c9 -16 18 -30 21 -30 2 0 -2 14 -11 30 -9 17 -18 30 -21
30 -2 0 2 -13 11 -30z"/>
<path d="M6855 1930 c-9 -16 -13 -30 -11 -30 3 0 12 14 21 30 9 17 13 30 11
30 -3 0 -12 -13 -21 -30z"/>
<path d="M1400 1877 l0 -52 -47 -17 c-27 -9 -57 -24 -68 -32 -20 -15 -20 -15
2 -37 22 -23 22 -23 57 -4 19 11 38 17 41 14 3 -4 1 -43 -4 -88 -12 -107 -44
-147 -85 -105 -10 10 -14 24 -10 40 5 18 0 29 -17 44 -22 17 -25 18 -36 3 -7
-9 -13 -34 -13 -56 0 -31 7 -46 33 -72 19 -19 46 -37 61 -41 40 -10 93 18 112
60 15 31 19 33 49 26 79 -18 146 45 131 125 -9 45 -69 110 -111 121 -19 5 -25
13 -25 33 -1 22 -49 91 -65 91 -3 0 -5 -24 -5 -53z m101 -140 c29 -22 39 -51
26 -77 -12 -24 -61 -50 -72 -39 -10 10 8 129 19 129 6 0 18 -6 27 -13z"/>
<path d="M485 1840 c9 -16 18 -30 21 -30 2 0 -2 14 -11 30 -9 17 -18 30 -21
30 -2 0 2 -13 11 -30z"/>
<path d="M6805 1840 c-9 -16 -13 -30 -11 -30 3 0 12 14 21 30 9 17 13 30 11
30 -3 0 -12 -13 -21 -30z"/>
<path d="M520 1780 c6 -11 13 -20 16 -20 2 0 0 9 -6 20 -6 11 -13 20 -16 20
-2 0 0 -9 6 -20z"/>
<path d="M6770 1780 c-6 -11 -8 -20 -6 -20 3 0 10 9 16 20 6 11 8 20 6 20 -3
0 -10 -9 -16 -20z"/>
<path d="M5724 1721 c-22 -10 -56 -37 -76 -61 -81 -93 -64 -222 39 -293 74
-53 169 -46 239 16 114 99 95 265 -37 331 -62 31 -108 33 -165 7z m136 -91
c65 -46 79 -127 32 -178 -54 -58 -114 -54 -174 9 -31 32 -38 47 -38 80 0 100
97 148 180 89z"/>
<path d="M565 1710 c19 -33 106 -160 111 -160 5 0 -93 149 -109 165 -7 7 -7 5
-2 -5z"/>
<path d="M6676 1635 c-31 -47 -54 -85 -51 -85 2 0 26 33 53 73 58 86 64 97 59
97 -2 0 -29 -38 -61 -85z"/>
<path d="M711 1496 c17 -25 45 -60 61 -78 16 -18 4 2 -28 45 -31 42 -58 77
-61 77 -2 0 10 -20 28 -44z"/>
<path d="M6532 1435 c-44 -58 -79 -105 -77 -105 4 0 91 107 140 173 15 20 25
37 23 37 -2 0 -41 -47 -86 -105z"/>
<path d="M1704 1444 c-27 -35 -48 -67 -47 -70 1 -3 24 -23 51 -44 47 -38 50
-39 66 -21 20 22 20 30 0 52 -13 14 -13 20 -2 38 18 30 45 26 84 -13 54 -54
44 -131 -26 -190 -61 -51 -148 -27 -185 50 -15 33 -20 36 -48 30 -17 -3 -32
-8 -34 -10 -8 -8 29 -82 55 -109 61 -65 170 -90 237 -54 68 35 115 110 115
183 0 103 -77 190 -191 217 -23 6 -31 -1 -75 -59z"/>
<path d="M5433 1464 l-33 -25 45 -56 c25 -30 45 -59 45 -63 0 -5 -22 -26 -49
-47 l-49 -39 20 -27 20 -27 50 40 c28 22 53 40 57 40 3 0 18 -18 34 -40 l27
-39 -57 -46 c-32 -26 -59 -50 -60 -54 -2 -3 5 -16 15 -29 l18 -23 92 71 c50
39 94 75 97 80 6 9 -222 310 -234 310 -4 0 -21 -12 -38 -26z"/>
<path d="M820 1355 c13 -14 26 -25 28 -25 3 0 -5 11 -18 25 -13 14 -26 25 -28
25 -3 0 5 -11 18 -25z"/>
<path d="M897 1265 c28 -33 68 -76 89 -95 21 -19 10 -3 -25 35 -94 102 -122
129 -64 60z"/>
<path d="M6360 1228 c-46 -51 -67 -77 -46 -58 39 36 141 150 134 150 -2 0 -41
-42 -88 -92z"/>
<path d="M2093 1277 c-20 -26 -183 -314 -183 -323 0 -5 13 -17 29 -27 l29 -17
20 32 c11 18 39 67 63 108 l43 75 7 -40 c4 -22 14 -93 24 -158 17 -112 19
-119 46 -132 l28 -15 42 72 c23 40 67 115 97 167 l55 94 -23 19 c-12 10 -28
18 -35 18 -7 0 -39 -46 -71 -102 -67 -119 -62 -124 -90 77 -16 116 -19 127
-44 145 -22 15 -30 17 -37 7z"/>
<path d="M5027 1189 c-59 -33 -107 -62 -107 -64 0 -12 24 -55 31 -55 4 0 35
16 68 35 32 19 63 35 68 35 13 0 45 -69 37 -81 -3 -5 -24 -19 -47 -30 -23 -12
-43 -23 -45 -24 -7 -6 22 -55 32 -55 6 0 29 11 51 25 22 13 43 25 48 25 8 0
47 -60 47 -72 0 -4 -28 -23 -62 -44 -35 -20 -65 -38 -67 -40 -7 -6 21 -54 32
-54 16 0 207 112 207 121 0 5 -42 83 -93 173 l-93 165 -107 -60z"/>
<path d="M1065 1080 c27 -27 51 -50 54 -50 3 0 -17 23 -44 50 -27 28 -51 50
-54 50 -3 0 17 -22 44 -50z"/>
<path d="M6225 1078 l-50 -53 53 50 c48 46 57 55 49 55 -1 0 -25 -24 -52 -52z"/>
<path d="M2450 1047 c-10 -23 -46 -103 -79 -177 l-60 -135 40 -18 c23 -10 42
-17 43 -15 3 3 145 326 153 344 2 6 -15 18 -37 27 l-42 16 -18 -42z"/>
<path d="M4820 1077 c-14 -6 -26 -11 -27 -12 -2 -1 17 -51 41 -111 24 -60 43
-110 41 -112 -2 -2 -64 31 -138 73 -122 68 -138 75 -159 64 -13 -6 -25 -13
-27 -15 -2 -2 29 -84 69 -183 l72 -180 26 11 c15 7 31 15 35 19 5 3 -12 56
-37 118 -24 61 -43 111 -41 111 2 0 62 -34 134 -75 71 -41 135 -75 140 -75 6
0 21 5 34 11 l25 11 -72 176 c-39 96 -75 177 -81 178 -5 1 -21 -2 -35 -9z"/>
<path d="M1180 975 c30 -30 57 -55 59 -55 3 0 -19 25 -49 55 -30 30 -57 55
-59 55 -3 0 19 -25 49 -55z"/>
<path d="M2590 1021 c0 -19 31 -145 41 -162 7 -14 4 -19 -21 -24 -35 -8 -76
-53 -85 -94 -8 -36 15 -84 51 -108 46 -30 184 -74 189 -60 23 59 115 344 115
353 0 7 -11 15 -24 18 -13 3 -30 8 -38 11 -10 4 -21 -15 -38 -64 -21 -62 -26
-68 -44 -61 -17 6 -24 24 -36 86 -13 67 -19 81 -40 90 -43 20 -70 26 -70 15z
m130 -250 c12 -8 12 -17 -3 -65 l-18 -56 -37 15 c-55 23 -66 51 -36 93 16 23
66 30 94 13z"/>
<path d="M6110 973 l-55 -58 58 55 c31 30 57 56 57 57 0 8 -10 -1 -60 -54z"/>
<path d="M1250 917 c0 -2 15 -16 33 -33 l32 -29 -29 33 c-28 30 -36 37 -36 29z"/>
<path d="M2940 906 c0 -6 -3 -21 -6 -33 -5 -19 0 -22 53 -33 102 -20 100 -19
90 -69 l-9 -43 -41 6 c-85 13 -82 13 -85 -21 -3 -30 -1 -32 41 -38 64 -10 70
-16 62 -64 -8 -46 -6 -45 -95 -26 -35 7 -68 11 -72 9 -4 -3 -8 -18 -8 -33 0
-28 2 -28 118 -53 64 -14 118 -24 119 -24 1 1 18 80 38 176 20 96 38 182 41
191 4 13 -17 20 -121 41 -83 17 -125 21 -125 14z"/>
<path d="M4287 909 c-48 -11 -87 -31 -110 -57 -17 -19 -17 -23 -1 -88 9 -38
20 -73 24 -77 11 -12 121 14 127 29 9 24 -15 52 -41 47 -20 -4 -26 0 -31 20
-9 34 -1 44 43 58 81 24 152 -40 152 -136 -1 -83 -45 -119 -138 -113 -54 3
-57 2 -70 -26 -17 -34 -9 -41 51 -51 84 -15 197 38 230 108 10 19 17 59 17 89
-1 101 -57 176 -150 197 -52 12 -52 12 -103 0z"/>
<path d="M6014 888 l-29 -33 33 29 c17 17 32 31 32 33 0 8 -8 1 -36 -29z"/>
<path d="M1323 853 c9 -14 87 -77 87 -70 0 3 -21 22 -47 43 -26 21 -44 33 -40
27z"/>
<path d="M3244 827 c-3 -16 -4 -30 -1 -33 2 -3 29 -7 58 -10 101 -10 100 -10
97 -57 l-3 -42 -62 2 c-60 1 -63 0 -63 -23 0 -13 -1 -27 -2 -31 -2 -5 23 -11
55 -14 32 -4 59 -8 61 -10 1 -2 1 -24 -2 -48 l-4 -43 -75 7 c-81 7 -93 2 -93
-41 0 -19 8 -21 123 -31 67 -6 123 -9 125 -8 5 4 40 379 36 384 -2 2 -57 9
-123 15 l-120 12 -7 -29z"/>
<path d="M4018 853 c-10 -2 -18 -9 -18 -14 0 -14 51 -373 53 -375 1 0 22 1 46
4 40 4 43 6 38 31 -3 14 -15 101 -27 194 l-23 167 -26 -1 c-14 -1 -34 -3 -43
-6z"/>
<path d="M5930 819 l-45 -41 42 32 c37 27 61 51 51 50 -2 0 -23 -19 -48 -41z"/>
<path d="M3847 834 c-3 -3 -3 -61 0 -128 l5 -121 -44 50 c-23 27 -70 81 -104
120 -48 55 -67 71 -92 73 l-32 3 0 -58 c0 -32 3 -122 7 -200 l6 -143 26 0 c52
0 54 8 47 134 -4 64 -5 116 -3 116 2 0 50 -54 106 -120 88 -103 106 -120 131
-120 l30 0 0 103 c0 56 -3 146 -7 200 l-6 97 -32 0 c-17 0 -34 -3 -38 -6z"/>
<path d="M1424 772 c8 -13 66 -56 66 -49 0 3 -17 17 -37 33 -20 15 -33 23 -29
16z"/>
<path d="M5840 749 c-35 -31 -35 -31 -3 -9 18 11 35 25 38 30 10 16 2 11 -35
-21z"/>
<path d="M1500 716 c0 -2 8 -10 18 -17 15 -13 16 -12 3 4 -13 16 -21 21 -21
13z"/>
<path d="M5779 703 c-13 -16 -12 -17 4 -4 9 7 17 15 17 17 0 8 -8 3 -21 -13z"/>
<path d="M1570 665 c0 -2 26 -22 58 -43 70 -47 82 -54 82 -49 0 2 -31 25 -70
51 -38 25 -70 44 -70 41z"/>
<path d="M5662 626 c-61 -42 -92 -68 -62 -51 32 18 130 86 130 90 0 7 0 7 -68
-39z"/>
<path d="M1720 566 c0 -3 9 -10 20 -16 11 -6 20 -8 20 -6 0 3 -9 10 -20 16
-11 6 -20 8 -20 6z"/>
<path d="M5554 554 c-18 -14 -18 -15 4 -4 12 6 22 13 22 15 0 8 -5 6 -26 -11z"/>
<path d="M1770 536 c0 -3 9 -10 20 -16 11 -6 20 -8 20 -6 0 3 -9 10 -20 16
-11 6 -20 8 -20 6z"/>
<path d="M5504 524 c-18 -14 -18 -15 4 -4 12 6 22 13 22 15 0 8 -5 6 -26 -11z"/>
<path d="M1820 506 c0 -3 9 -10 20 -16 11 -6 20 -8 20 -6 0 3 -9 10 -20 16
-11 6 -20 8 -20 6z"/>
<path d="M5454 494 c-18 -14 -18 -15 4 -4 12 6 22 13 22 15 0 8 -5 6 -26 -11z"/>
<path d="M1890 465 c0 -2 23 -16 50 -30 28 -14 50 -23 50 -20 0 2 -22 16 -50
30 -27 14 -50 23 -50 20z"/>
<path d="M5358 444 c-27 -13 -48 -27 -48 -29 0 -3 23 6 50 20 28 14 50 28 50
30 0 7 1 7 -52 -21z"/>
<path d="M2090 360 c19 -11 40 -19 45 -19 6 0 -6 8 -25 19 -19 11 -39 19 -45
19 -5 0 6 -8 25 -19z"/>
<path d="M5190 360 c-19 -11 -30 -19 -25 -19 6 0 26 8 45 19 19 11 31 19 25
19 -5 0 -26 -8 -45 -19z"/>
<path d="M2200 310 c8 -5 20 -10 25 -10 6 0 3 5 -5 10 -8 5 -19 10 -25 10 -5
0 -3 -5 5 -10z"/>
<path d="M5080 310 c-8 -5 -10 -10 -5 -10 6 0 17 5 25 10 8 5 11 10 5 10 -5 0
-17 -5 -25 -10z"/>
<path d="M4930 250 c-8 -5 -10 -10 -5 -10 6 0 17 5 25 10 8 5 11 10 5 10 -5 0
-17 -5 -25 -10z"/>
<path d="M2460 210 c8 -5 22 -9 30 -9 10 0 8 3 -5 9 -27 12 -43 12 -25 0z"/>
<path d="M4815 210 c-13 -6 -15 -9 -5 -9 8 0 22 4 30 9 18 12 2 12 -25 0z"/>
<path d="M2638 153 c7 -3 16 -2 19 1 4 3 -2 6 -13 5 -11 0 -14 -3 -6 -6z"/>
<path d="M4648 153 c7 -3 16 -2 19 1 4 3 -2 6 -13 5 -11 0 -14 -3 -6 -6z"/>
<path d="M2748 123 c7 -3 16 -2 19 1 4 3 -2 6 -13 5 -11 0 -14 -3 -6 -6z"/>
<path d="M4538 123 c7 -3 16 -2 19 1 4 3 -2 6 -13 5 -11 0 -14 -3 -6 -6z"/>
<path d="M2788 113 c7 -3 16 -2 19 1 4 3 -2 6 -13 5 -11 0 -14 -3 -6 -6z"/>
<path d="M4498 113 c7 -3 16 -2 19 1 4 3 -2 6 -13 5 -11 0 -14 -3 -6 -6z"/>
<path d="M2838 103 c7 -3 16 -2 19 1 4 3 -2 6 -13 5 -11 0 -14 -3 -6 -6z"/>
<path d="M4448 103 c7 -3 16 -2 19 1 4 3 -2 6 -13 5 -11 0 -14 -3 -6 -6z"/>
<path d="M2878 93 c7 -3 16 -2 19 1 4 3 -2 6 -13 5 -11 0 -14 -3 -6 -6z"/>
<path d="M4408 93 c7 -3 16 -2 19 1 4 3 -2 6 -13 5 -11 0 -14 -3 -6 -6z"/>
<path d="M2928 83 c7 -3 16 -2 19 1 4 3 -2 6 -13 5 -11 0 -14 -3 -6 -6z"/>
<path d="M4358 83 c7 -3 16 -2 19 1 4 3 -2 6 -13 5 -11 0 -14 -3 -6 -6z"/>
<path d="M2978 73 c6 -2 18 -2 25 0 6 3 1 5 -13 5 -14 0 -19 -2 -12 -5z"/>
<path d="M4298 73 c6 -2 18 -2 25 0 6 3 1 5 -13 5 -14 0 -19 -2 -12 -5z"/>
<path d="M3038 63 c6 -2 18 -2 25 0 6 3 1 5 -13 5 -14 0 -19 -2 -12 -5z"/>
<path d="M4238 63 c6 -2 18 -2 25 0 6 3 1 5 -13 5 -14 0 -19 -2 -12 -5z"/>
<path d="M3098 53 c6 -2 18 -2 25 0 6 3 1 5 -13 5 -14 0 -19 -2 -12 -5z"/>
<path d="M4178 53 c6 -2 18 -2 25 0 6 3 1 5 -13 5 -14 0 -19 -2 -12 -5z"/>
<path d="M3173 43 c9 -2 23 -2 30 0 6 3 -1 5 -18 5 -16 0 -22 -2 -12 -5z"/>
<path d="M4103 43 c9 -2 23 -2 30 0 6 3 -1 5 -18 5 -16 0 -22 -2 -12 -5z"/>
<path d="M3253 33 c9 -2 25 -2 35 0 9 3 1 5 -18 5 -19 0 -27 -2 -17 -5z"/>
<path d="M4013 33 c9 -2 25 -2 35 0 9 3 1 5 -18 5 -19 0 -27 -2 -17 -5z"/>
<path d="M3363 23 c15 -2 37 -2 50 0 12 2 0 4 -28 4 -27 0 -38 -2 -22 -4z"/>
<path d="M3893 23 c15 -2 37 -2 50 0 12 2 0 4 -28 4 -27 0 -38 -2 -22 -4z"/>
<path d="M3578 13 c39 -2 105 -2 145 0 39 1 7 3 -73 3 -80 0 -112 -2 -72 -3z"/>
</g>
</svg>
